<mxfile host="app.diagrams.net" modified="2024-06-05T00:09:56.164Z" agent="Mozilla/5.0 (X11; Linux x86_64; rv:126.0) Gecko/20100101 Firefox/126.0" version="24.4.9" etag="hZL1l7cBTUaYplpBmUPF" type="github">
  <diagram name="Page-1" id="nA1rrcNUL7lxLfIvTC_e">
    <mxGraphModel>
      <root>
        <mxCell id="0" />
        <mxCell id="1" parent="0" />
      </root>
    </mxGraphModel>
  </diagram>
</mxfile>
